<svg width="30" height="32" viewBox="0 0 30 32" fill="none" xmlns="http://www.w3.org/2000/svg">
<g clip-path="url(#clip0_1168_10188)">
<path d="M12.9404 23.8942C13.0397 23.9918 13.1187 24.1093 13.1727 24.2394C13.2267 24.3695 13.2546 24.5096 13.2546 24.6512C13.2546 24.7927 13.2267 24.9328 13.1727 25.0629C13.1187 25.1931 13.0397 25.3105 12.9404 25.4081L7.3551 31.1756C7.26055 31.2781 7.14682 31.3597 7.02081 31.4155C6.8948 31.4712 6.75913 31.5 6.62203 31.5C6.48493 31.5 6.34927 31.4712 6.22325 31.4155C6.09724 31.3597 5.98351 31.2781 5.88896 31.1756L0.303648 25.4081C0.20738 25.3087 0.131016 25.1907 0.0789158 25.0608C0.0268157 24.931 0 24.7917 0 24.6512C0 24.5106 0.0268157 24.3714 0.0789158 24.2415C0.131016 24.1116 0.20738 23.9936 0.303648 23.8942C0.399917 23.7948 0.514204 23.7159 0.639985 23.6621C0.765765 23.6083 0.900577 23.5806 1.03672 23.5806C1.17286 23.5806 1.30768 23.6083 1.43346 23.6621C1.55924 23.7159 1.67352 23.7948 1.76979 23.8942L5.57479 27.8052V1.5814C5.57479 1.29459 5.68512 1.01953 5.88152 0.816733C6.07792 0.613932 6.34429 0.5 6.62203 0.5C6.89978 0.5 7.16615 0.613932 7.36255 0.816733C7.55894 1.01953 7.66928 1.29459 7.66928 1.5814V27.8052L11.4743 23.8942C11.5688 23.7917 11.6826 23.7101 11.8086 23.6543C11.9346 23.5985 12.0702 23.5698 12.2073 23.5698C12.3444 23.5698 12.4801 23.5985 12.6061 23.6543C12.7321 23.7101 12.8459 23.7917 12.9404 23.8942ZM29.6964 6.59186L24.111 0.824418C24.0165 0.721904 23.9028 0.640288 23.7767 0.584522C23.6507 0.528755 23.5151 0.5 23.378 0.5C23.2409 0.5 23.1052 0.528755 22.9792 0.584522C22.8532 0.640288 22.7394 0.721904 22.6449 0.824418L17.0596 6.59186C16.8652 6.79262 16.7559 7.06492 16.7559 7.34884C16.7559 7.63276 16.8652 7.90505 17.0596 8.10581C17.254 8.30658 17.5177 8.41936 17.7927 8.41936C18.0676 8.41936 18.3313 8.30658 18.5257 8.10581L22.3307 4.19477V30.4186C22.3307 30.7054 22.4411 30.9805 22.6375 31.1833C22.8338 31.3861 23.1002 31.5 23.378 31.5C23.6557 31.5 23.9221 31.3861 24.1185 31.1833C24.3149 30.9805 24.4252 30.7054 24.4252 30.4186V4.19477L28.2302 8.10581C28.4246 8.30658 28.6883 8.41936 28.9633 8.41936C29.2382 8.41936 29.5019 8.30658 29.6964 8.10581C29.8908 7.90505 30 7.63276 30 7.34884C30 7.06492 29.8908 6.79262 29.6964 6.59186Z" fill="black"/>
</g>
<defs>
<clipPath id="clip0_1168_10188">
<rect width="30" height="31" fill="white" transform="translate(0 0.5)"/>
</clipPath>
</defs>
</svg>
